<svg width="32" height="32" viewBox="0 0 32 32" fill="none" xmlns="http://www.w3.org/2000/svg">
<path fill-rule="evenodd" clip-rule="evenodd" d="M11.2847 4.61961C12.5349 3.36937 14.2306 2.66699 15.9987 2.66699C17.7668 2.66699 19.4625 3.36937 20.7127 4.61961C21.963 5.86986 22.6654 7.56555 22.6654 9.33366C22.6654 11.1018 21.963 12.7975 20.7127 14.0477C19.4625 15.2979 17.7668 16.0003 15.9987 16.0003C14.2306 16.0003 12.5349 15.2979 11.2847 14.0477C10.0344 12.7975 9.33203 11.1018 9.33203 9.33366C9.33203 7.56555 10.0344 5.86986 11.2847 4.61961ZM15.9987 5.33366C14.9378 5.33366 13.9204 5.75509 13.1703 6.50523C12.4201 7.25538 11.9987 8.27279 11.9987 9.33366C11.9987 10.3945 12.4201 11.4119 13.1703 12.1621C13.9204 12.9122 14.9378 13.3337 15.9987 13.3337C17.0596 13.3337 18.077 12.9122 18.8271 12.1621C19.5773 11.4119 19.9987 10.3945 19.9987 9.33366C19.9987 8.27279 19.5773 7.25538 18.8271 6.50523C18.077 5.75509 17.0596 5.33366 15.9987 5.33366Z" fill="white"/>
<path fill-rule="evenodd" clip-rule="evenodd" d="M13.3346 21.3337C12.2738 21.3337 11.2564 21.7551 10.5062 22.5052C9.75606 23.2554 9.33464 24.2728 9.33464 25.3337V28.0003C9.33464 28.7367 8.73768 29.3337 8.0013 29.3337C7.26492 29.3337 6.66797 28.7367 6.66797 28.0003V25.3337C6.66797 23.5655 7.37035 21.8699 8.62059 20.6196C9.87083 19.3694 11.5665 18.667 13.3346 18.667H18.668C20.4361 18.667 22.1318 19.3694 23.382 20.6196C24.6323 21.8699 25.3346 23.5655 25.3346 25.3337V28.0003C25.3346 28.7367 24.7377 29.3337 24.0013 29.3337C23.2649 29.3337 22.668 28.7367 22.668 28.0003V25.3337C22.668 24.2728 22.2465 23.2554 21.4964 22.5052C20.7462 21.7551 19.7288 21.3337 18.668 21.3337H13.3346Z" fill="white"/>
</svg>
