<svg width="32" height="32" viewBox="0 0 32 32" fill="none" xmlns="http://www.w3.org/2000/svg">
<g clip-path="url(#clip0_1279_8436)">
<path d="M5.33203 25.3337C5.33203 26.0409 5.61298 26.7192 6.11308 27.2193C6.61318 27.7194 7.29145 28.0003 7.9987 28.0003C8.70594 28.0003 9.38422 27.7194 9.88432 27.2193C10.3844 26.7192 10.6654 26.0409 10.6654 25.3337C10.6654 24.6264 10.3844 23.9481 9.88432 23.448C9.38422 22.9479 8.70594 22.667 7.9987 22.667C7.29145 22.667 6.61318 22.9479 6.11308 23.448C5.61298 23.9481 5.33203 24.6264 5.33203 25.3337Z" stroke="white" stroke-width="2" stroke-linecap="round" stroke-linejoin="round"/>
<path d="M20 25.3337C20 26.0409 20.281 26.7192 20.781 27.2193C21.2811 27.7194 21.9594 28.0003 22.6667 28.0003C23.3739 28.0003 24.0522 27.7194 24.5523 27.2193C25.0524 26.7192 25.3333 26.0409 25.3333 25.3337C25.3333 24.6264 25.0524 23.9481 24.5523 23.448C24.0522 22.9479 23.3739 22.667 22.6667 22.667C21.9594 22.667 21.2811 22.9479 20.781 23.448C20.281 23.9481 20 24.6264 20 25.3337Z" stroke="white" stroke-width="2" stroke-linecap="round" stroke-linejoin="round"/>
<path d="M22.6654 22.6667H7.9987V4H5.33203" stroke="white" stroke-width="2" stroke-linecap="round" stroke-linejoin="round"/>
<path d="M8 6.66699L26.6667 8.00033L25.3333 17.3337H8" stroke="white" stroke-width="2" stroke-linecap="round" stroke-linejoin="round"/>
</g>
<defs>
<clipPath id="clip0_1279_8436">
<rect width="32" height="32" fill="white"/>
</clipPath>
</defs>
</svg>
