<svg width="16" height="16" viewBox="0 0 16 16" fill="none" xmlns="http://www.w3.org/2000/svg">
<path fill-rule="evenodd" clip-rule="evenodd" d="M5.44877 1.84097C6.25761 1.50593 7.12452 1.3335 8 1.3335C8.87547 1.3335 9.74238 1.50593 10.5512 1.84097C11.3601 2.176 12.095 2.66706 12.714 3.28612C13.3331 3.90517 13.8242 4.6401 14.1592 5.44894C14.4942 6.25778 14.6667 7.12468 14.6667 8.00016C14.6667 8.87564 14.4942 9.74255 14.1592 10.5514C13.8242 11.3602 13.3331 12.0951 12.714 12.7142C12.095 13.3333 11.3601 13.8243 10.5512 14.1594C9.74238 14.4944 8.87547 14.6668 8 14.6668C7.12452 14.6668 6.25761 14.4944 5.44877 14.1594C4.63993 13.8243 3.90501 13.3333 3.28595 12.7142C2.66689 12.0951 2.17583 11.3602 1.8408 10.5514C1.50577 9.74255 1.33333 8.87564 1.33333 8.00016C1.33333 7.12468 1.50577 6.25778 1.8408 5.44894C2.17583 4.6401 2.66689 3.90517 3.28595 3.28612C3.90501 2.66706 4.63994 2.176 5.44877 1.84097ZM8 2.66683C7.29961 2.66683 6.60609 2.80478 5.95902 3.07281C5.31195 3.34083 4.724 3.73368 4.22876 4.22893C3.73351 4.72417 3.34066 5.31211 3.07264 5.95918C2.80461 6.60625 2.66666 7.29978 2.66666 8.00016C2.66666 8.70055 2.80461 9.39407 3.07264 10.0411C3.34066 10.6882 3.73351 11.2762 4.22876 11.7714C4.724 12.2666 5.31195 12.6595 5.95902 12.9275C6.60609 13.1955 7.29961 13.3335 8 13.3335C8.70038 13.3335 9.3939 13.1955 10.041 12.9275C10.688 12.6595 11.276 12.2666 11.7712 11.7714C12.2665 11.2762 12.6593 10.6882 12.9274 10.0411C13.1954 9.39407 13.3333 8.70055 13.3333 8.00016C13.3333 7.29978 13.1954 6.60625 12.9274 5.95918C12.6593 5.31211 12.2665 4.72417 11.7712 4.22893C11.276 3.73368 10.688 3.34083 10.041 3.07281C9.3939 2.80478 8.70038 2.66683 8 2.66683Z" fill="#F70000"/>
<path fill-rule="evenodd" clip-rule="evenodd" d="M7.33333 5.33317C7.33333 4.96498 7.6318 4.6665 7.99999 4.6665H8.00666C8.37485 4.6665 8.67333 4.96498 8.67333 5.33317C8.67333 5.70136 8.37485 5.99984 8.00666 5.99984H7.99999C7.6318 5.99984 7.33333 5.70136 7.33333 5.33317Z" fill="#F70000"/>
<path fill-rule="evenodd" clip-rule="evenodd" d="M6.66667 8.00016C6.66667 7.63197 6.96515 7.3335 7.33334 7.3335H8.00001C8.36819 7.3335 8.66667 7.63197 8.66667 8.00016V10.0002C9.03486 10.0002 9.33334 10.2986 9.33334 10.6668C9.33334 11.035 9.03486 11.3335 8.66667 11.3335H8.00001C7.63182 11.3335 7.33334 11.035 7.33334 10.6668V8.66683C6.96515 8.66683 6.66667 8.36835 6.66667 8.00016Z" fill="#F70000"/>
</svg>
