<svg width="32" height="32" viewBox="0 0 32 32" fill="none" xmlns="http://www.w3.org/2000/svg">
<path fill-rule="evenodd" clip-rule="evenodd" d="M5.33203 10.6663C5.33203 9.92996 5.92898 9.33301 6.66536 9.33301H25.332C26.0684 9.33301 26.6654 9.92996 26.6654 10.6663C26.6654 11.4027 26.0684 11.9997 25.332 11.9997H6.66536C5.92898 11.9997 5.33203 11.4027 5.33203 10.6663Z" fill="white"/>
<path fill-rule="evenodd" clip-rule="evenodd" d="M5.33203 16.0003C5.33203 15.2639 5.92898 14.667 6.66536 14.667H18.6654C19.4017 14.667 19.9987 15.2639 19.9987 16.0003C19.9987 16.7367 19.4017 17.3337 18.6654 17.3337H6.66536C5.92898 17.3337 5.33203 16.7367 5.33203 16.0003Z" fill="white"/>
<path fill-rule="evenodd" clip-rule="evenodd" d="M5.33203 21.3333C5.33203 20.597 5.92898 20 6.66536 20H14.6654C15.4017 20 15.9987 20.597 15.9987 21.3333C15.9987 22.0697 15.4017 22.6667 14.6654 22.6667H6.66536C5.92898 22.6667 5.33203 22.0697 5.33203 21.3333Z" fill="white"/>
<path fill-rule="evenodd" clip-rule="evenodd" d="M18.668 21.3333C18.668 20.597 19.2649 20 20.0013 20H28.0013C28.7377 20 29.3346 20.597 29.3346 21.3333C29.3346 22.0697 28.7377 22.6667 28.0013 22.6667H20.0013C19.2649 22.6667 18.668 22.0697 18.668 21.3333Z" fill="white"/>
<path fill-rule="evenodd" clip-rule="evenodd" d="M24.0013 16C24.7377 16 25.3346 16.597 25.3346 17.3333V25.3333C25.3346 26.0697 24.7377 26.6667 24.0013 26.6667C23.2649 26.6667 22.668 26.0697 22.668 25.3333V17.3333C22.668 16.597 23.2649 16 24.0013 16Z" fill="white"/>
</svg>
